<svg id="Capa_1" data-name="Capa 1" xmlns="http://www.w3.org/2000/svg" viewBox="0 0 160 13.54"><defs><style>.cls-1{fill:#fff;}</style></defs><title>OP5Monitor horizontal</title><path class="cls-1" d="M0,.33A.16.16,0,0,1,.18.16h1.3a.16.16,0,0,1,.16.17V13.21a.15.15,0,0,1-.16.16H.18c-.12,0-.18-.06-.18-.16Z"/><path class="cls-1" d="M12.7,1.5c0,.1-.06.16-.19.16H9.07V13.21c0,.1-.06.16-.18.16H7.6a.15.15,0,0,1-.16-.16V1.66H4c-.12,0-.18-.06-.18-.16V.33A.16.16,0,0,1,4,.16h8.54c.13,0,.19.07.19.17Z"/><path class="cls-1" d="M23.59,13.25c0,.08-.06.12-.16.12H22a.26.26,0,0,1-.23-.12L19.27,8.48h-2.8v4.73a.15.15,0,0,1-.17.16H15c-.12,0-.18-.06-.18-.16V.33A.16.16,0,0,1,15,.16H19.7c2.62,0,3.75,1.05,3.75,3.36v1.6C23.45,7,22.71,8,21,8.38l2.54,4.77ZM16.47,7h2.86c2.07,0,2.48-.37,2.48-1.84V3.52c0-1.47-.41-1.86-2.48-1.86H16.47Z"/><path class="cls-1" d="M25.68,9.48a.16.16,0,0,1,.17-.16h1.29c.12,0,.18.06.18.16v.64c0,1.41.51,1.92,2.81,1.92h.12c2.29,0,2.81-.51,2.81-1.92V9.56c0-1.2-.29-1.51-1.85-1.88l-2.6-.57c-2.07-.47-2.82-1.33-2.82-3.28V3.42C25.79,1,27,0,30.13,0h.12c3.18,0,4.32,1,4.32,3.42v.64a.15.15,0,0,1-.16.16H33.12c-.12,0-.19-.06-.19-.16V3.42c0-1.41-.47-1.92-2.68-1.92h-.12c-2.19,0-2.71.51-2.71,1.92v.41c0,1.11.27,1.49,1.77,1.82l2.62.58C34,6.7,34.7,7.54,34.7,9.56v.56c0,2.35-1.13,3.42-4.45,3.42h-.12c-3.32,0-4.45-1.07-4.45-3.42Z"/><path class="cls-1" d="M41.52,3.65C41.52,1.13,42.74,0,46.43,0h.12c3.69,0,4.9,1.13,4.9,3.65V9.89c0,2.52-1.21,3.65-4.9,3.65h-.12c-3.69,0-4.91-1.13-4.91-3.65Zm5,7.84c2.22,0,2.65-.37,2.65-1.6V3.65c0-1.23-.43-1.6-2.65-1.6h-.12c-2.23,0-2.66.37-2.66,1.6V9.89c0,1.23.43,1.6,2.66,1.6Z"/><path class="cls-1" d="M63.35,5.45C63.35,7.84,62.16,9,59.62,9H56.53v4.18a.18.18,0,0,1-.19.18H54.48a.2.2,0,0,1-.2-.18V.35a.21.21,0,0,1,.2-.19h5.14c2.54,0,3.73,1.17,3.73,3.57ZM61.1,3.73c0-1.23-.27-1.52-2-1.52H56.53V7h2.56c1.74,0,2-.28,2-1.51Z"/><path class="cls-1" d="M74.63,9.89c0,2.54-1.29,3.65-4.58,3.65h-.13c-3.29,0-4.56-1.11-4.56-3.65V9.34c0-.14.06-.21.2-.21h1.86a.21.21,0,0,1,.19.21v.55c0,1.25.45,1.6,2.31,1.6h.13c1.88,0,2.33-.35,2.33-1.6V8.77c0-1.25-.45-1.6-2.25-1.6H67A.39.39,0,0,1,66.65,7l-.84-.63a.3.3,0,0,1-.13-.25V.35a.17.17,0,0,1,.19-.19h8.25a.17.17,0,0,1,.19.19V2a.17.17,0,0,1-.19.18H67.9V5.12h2.49c3,0,4.24,1.13,4.24,3.65Z"/><path class="cls-1" d="M94.25,13.19a.2.2,0,0,1-.2.18h-1.8a.17.17,0,0,1-.19-.18V7.93c0-1.32,0-2.67.13-4a33.6,33.6,0,0,1-1.58,4l-1.5,3.23a.22.22,0,0,1-.22.12H87.25a.18.18,0,0,1-.2-.12l-1.5-3.23a35.37,35.37,0,0,1-1.58-4c.09,1.37.13,2.72.13,4v5.26a.19.19,0,0,1-.19.18h-1.8a.2.2,0,0,1-.2-.18V.35a.21.21,0,0,1,.2-.19h2a.29.29,0,0,1,.24.17l2.91,6.33a21.11,21.11,0,0,1,.88,2.17A18.48,18.48,0,0,1,89,6.66L91.86.33a.3.3,0,0,1,.22-.17h2a.21.21,0,0,1,.2.19Z"/><path class="cls-1" d="M97.06,3.65C97.06,1.13,98.29,0,102,0h.12C105.79,0,107,1.13,107,3.65V9.89c0,2.52-1.2,3.65-4.89,3.65H102c-3.69,0-4.92-1.13-4.92-3.65Zm5,7.84c2.21,0,2.64-.37,2.64-1.6V3.65c0-1.23-.43-1.6-2.64-1.6H102c-2.24,0-2.67.37-2.67,1.6V9.89c0,1.23.43,1.6,2.67,1.6Z"/><path class="cls-1" d="M120.08,13.19a.2.2,0,0,1-.2.18h-2a.31.31,0,0,1-.23-.12l-3.66-6a25,25,0,0,1-2-3.69c.06,1,.1,2.26.1,3.69v6a.18.18,0,0,1-.18.18H110a.2.2,0,0,1-.21-.18V.35A.21.21,0,0,1,110,.16h2a.26.26,0,0,1,.23.13l3.66,6c.46.76.82,1.39,1.11,1.92a13.91,13.91,0,0,1,.88,1.81c-.06-1-.1-2.28-.1-3.73v-6A.17.17,0,0,1,118,.16h1.87a.21.21,0,0,1,.2.19Z"/><path class="cls-1" d="M123.09.35a.22.22,0,0,1,.21-.19h1.86a.19.19,0,0,1,.19.19V13.19a.18.18,0,0,1-.19.18H123.3a.21.21,0,0,1-.21-.18Z"/><path class="cls-1" d="M136.36,2a.2.2,0,0,1-.2.18h-3.24v11a.2.2,0,0,1-.2.18h-1.86c-.13,0-.19-.06-.19-.18v-11h-3.26a.2.2,0,0,1-.2-.18V.35a.21.21,0,0,1,.2-.19h8.75a.21.21,0,0,1,.2.19Z"/><path class="cls-1" d="M138,3.65C138,1.13,139.25,0,142.94,0h.12c3.69,0,4.9,1.13,4.9,3.65V9.89c0,2.52-1.21,3.65-4.9,3.65h-.12c-3.69,0-4.92-1.13-4.92-3.65Zm5,7.84c2.21,0,2.64-.37,2.64-1.6V3.65c0-1.23-.43-1.6-2.64-1.6h-.12c-2.23,0-2.66.37-2.66,1.6V9.89c0,1.23.43,1.6,2.66,1.6Z"/><path class="cls-1" d="M160,13.23a.15.15,0,0,1-.16.14h-2.15a.27.27,0,0,1-.25-.14l-2.27-4.48H153v4.44a.18.18,0,0,1-.19.18H151a.21.21,0,0,1-.21-.18V.35A.22.22,0,0,1,151,.16h5.12c2.6,0,3.75,1.11,3.75,3.57V5.18c0,2-.76,3.07-2.34,3.42L160,13.13ZM153,6.7h2.54c1.76,0,2-.27,2-1.52V3.73c0-1.25-.26-1.52-2-1.52H153Z"/></svg>