<svg xmlns="http://www.w3.org/2000/svg" viewBox="0 0 98 48"><defs><style>.cls-1{fill:#4d8589;}.cls-2{fill:#fff;}</style></defs><title>OM 203x99</title><g id="Capa_2" data-name="Capa 2"><g id="products"><rect class="cls-1" width="98" height="48"/><path class="cls-2" d="M7.5,7.36c0-.07,0-.11.12-.11h.83c.07,0,.1,0,.1.11v8.26a.09.09,0,0,1-.1.1H7.62c-.08,0-.12,0-.12-.1Z"/><path class="cls-2" d="M15.64,8.11a.1.1,0,0,1-.11.1H13.32v7.41c0,.06,0,.1-.12.1h-.82a.1.1,0,0,1-.11-.1V8.21H10.05c-.08,0-.12,0-.12-.1V7.36c0-.07,0-.11.12-.11h5.48a.1.1,0,0,1,.11.11Z"/><path class="cls-2" d="M22.63,15.64s0,.08-.11.08h-.93a.16.16,0,0,1-.14-.08l-1.59-3.06h-1.8v3a.1.1,0,0,1-.11.1h-.82c-.08,0-.12,0-.12-.1V7.36c0-.07,0-.11.12-.11h3c1.68,0,2.41.67,2.41,2.16v1A1.83,1.83,0,0,1,21,12.52l1.63,3.06Zm-4.57-4H19.9c1.32,0,1.59-.23,1.59-1.18v-1c0-.95-.27-1.2-1.59-1.2H18.06Z"/><path class="cls-2" d="M24,13.23a.1.1,0,0,1,.1-.11h.83c.08,0,.12,0,.12.11v.4c0,.91.33,1.24,1.8,1.24h.07c1.47,0,1.8-.33,1.8-1.24v-.35c0-.78-.18-1-1.18-1.21l-1.67-.37C24.52,11.4,24,10.85,24,9.6V9.34c0-1.52.75-2.19,2.79-2.19h.07c2,0,2.77.67,2.77,2.19v.41a.09.09,0,0,1-.1.1h-.83c-.08,0-.12,0-.12-.1V9.34c0-.9-.3-1.23-1.72-1.23h-.07c-1.41,0-1.74.33-1.74,1.23V9.6c0,.71.17,1,1.13,1.17l1.68.37c1.38.3,1.85.84,1.85,2.14v.35c0,1.51-.72,2.2-2.85,2.2h-.07c-2.13,0-2.85-.69-2.85-2.2Z"/><path class="cls-2" d="M7.26,22c0-1.62.78-2.34,3.15-2.34h.07c2.37,0,3.14.72,3.14,2.34v4c0,1.62-.77,2.34-3.14,2.34h-.07C8,28.34,7.26,27.62,7.26,26Zm3.22,5c1.42,0,1.7-.24,1.7-1V22c0-.79-.28-1-1.7-1h-.07C9,21,8.7,21.21,8.7,22v4c0,.79.27,1,1.71,1Z"/><path class="cls-2" d="M21.25,23.15c0,1.54-.76,2.29-2.39,2.29h-2v2.68a.11.11,0,0,1-.12.11H15.57c-.07,0-.14-.05-.14-.11V19.88c0-.06.07-.11.14-.11h3.29c1.63,0,2.39.75,2.39,2.28Zm-1.44-1.1c0-.79-.17-1-1.29-1H16.88v3h1.64c1.12,0,1.29-.18,1.29-1Z"/><path class="cls-2" d="M28.48,26c0,1.63-.82,2.34-2.94,2.34h-.08c-2.11,0-2.92-.71-2.92-2.34v-.35c0-.09,0-.13.13-.13h1.19a.12.12,0,0,1,.12.13V26c0,.8.29,1,1.48,1h.08c1.21,0,1.5-.23,1.5-1v-.72c0-.8-.29-1-1.45-1h-2a.3.3,0,0,1-.21-.08l-.53-.41a.17.17,0,0,1-.08-.16V19.88a.1.1,0,0,1,.11-.11h5.29c.08,0,.12,0,.12.11V21a.11.11,0,0,1-.12.12h-4v1.86h1.61c1.93,0,2.71.73,2.71,2.34Z"/><path class="cls-2" d="M41.06,28.12a.13.13,0,0,1-.13.11H39.77c-.08,0-.12,0-.12-.11V24.74c0-.84,0-1.7.08-2.58a20.89,20.89,0,0,1-1,2.58l-1,2.08a.13.13,0,0,1-.14.08h-1c-.07,0-.12,0-.13-.08l-1-2.08a22.61,22.61,0,0,1-1-2.58c.05.88.08,1.74.08,2.58v3.38a.11.11,0,0,1-.12.11H33.27a.13.13,0,0,1-.13-.11V19.88a.13.13,0,0,1,.13-.11h1.25a.19.19,0,0,1,.16.1l1.86,4.06a14.82,14.82,0,0,1,.57,1.39,11.91,11.91,0,0,1,.55-1.39l1.86-4.06a.2.2,0,0,1,.15-.1h1.26a.13.13,0,0,1,.13.11Z"/><path class="cls-2" d="M42.86,22c0-1.62.79-2.34,3.15-2.34h.08c2.36,0,3.14.72,3.14,2.34v4c0,1.62-.78,2.34-3.14,2.34H46c-2.36,0-3.15-.72-3.15-2.34Zm3.23,5c1.42,0,1.69-.24,1.69-1V22c0-.79-.27-1-1.69-1H46c-1.43,0-1.71.24-1.71,1v4c0,.79.28,1,1.71,1Z"/><path class="cls-2" d="M57.61,28.12a.12.12,0,0,1-.13.11h-1.3a.17.17,0,0,1-.14-.07L53.69,24.3a16,16,0,0,1-1.27-2.37c0,.66.06,1.45.06,2.37v3.82a.11.11,0,0,1-.12.11H51.17a.12.12,0,0,1-.13-.11V19.88a.12.12,0,0,1,.13-.11h1.3a.15.15,0,0,1,.14.08L55,23.71c.29.48.53.89.71,1.23a10.27,10.27,0,0,1,.57,1.15c0-.65-.07-1.45-.07-2.38V19.88c0-.07,0-.11.12-.11h1.19a.12.12,0,0,1,.13.11Z"/><path class="cls-2" d="M59.54,19.88c0-.06.07-.11.14-.11h1.19a.11.11,0,0,1,.12.11v8.24a.11.11,0,0,1-.12.11H59.68c-.07,0-.14-.05-.14-.11Z"/><path class="cls-2" d="M68.05,21a.13.13,0,0,1-.13.12H65.85v7c0,.06-.07.11-.14.11H64.52c-.08,0-.12,0-.12-.11v-7H62.31a.13.13,0,0,1-.13-.12V19.88a.13.13,0,0,1,.13-.11h5.61a.13.13,0,0,1,.13.11Z"/><path class="cls-2" d="M69.11,22c0-1.62.79-2.34,3.15-2.34h.08c2.37,0,3.14.72,3.14,2.34v4c0,1.62-.77,2.34-3.14,2.34h-.08c-2.36,0-3.15-.72-3.15-2.34Zm3.23,5c1.42,0,1.7-.24,1.7-1V22c0-.79-.28-1-1.7-1h-.08c-1.43,0-1.7.24-1.7,1v4c0,.79.27,1,1.7,1Z"/><path class="cls-2" d="M83.2,28.14a.1.1,0,0,1-.1.09H81.72a.16.16,0,0,1-.16-.09L80.1,25.27H78.74v2.85a.12.12,0,0,1-.12.11h-1.2a.13.13,0,0,1-.13-.11V19.88a.13.13,0,0,1,.13-.11h3.29c1.66,0,2.4.71,2.4,2.28V23c0,1.25-.49,2-1.5,2.2l1.56,2.9ZM78.74,24h1.62c1.13,0,1.3-.17,1.3-1v-.93c0-.8-.17-1-1.3-1H78.74Z"/></g></g></svg>